<?xml version="1.0" encoding="UTF-8"?>
<svg version="1.1" xmlns="http://www.w3.org/2000/svg" width="700" height="700">
<path d="M0 0 C2.35393639 1.48996413 4.00192704 3.00192704 6 5 C6 5.66 6 6.32 6 7 C6.58652344 7.22816406 7.17304688 7.45632812 7.77734375 7.69140625 C13.55892998 11.09532785 16.96388358 18.98470552 18.9375 25.1875 C21.76764169 37.45730684 21.04967676 50.44290582 14.5625 61.375 C12.64073865 64.23448827 10.67125982 66.78930222 8 69 C7.34 69 6.68 69 6 69 C6.33 79.23 6.66 89.46 7 100 C7.70125 97.751875 8.4025 95.50375 9.125 93.1875 C12.96448265 81.49925315 18.42002364 72.8538054 27 64 C27.54140625 63.37351562 28.0828125 62.74703125 28.640625 62.1015625 C41.38279508 47.87924135 66.27330783 39.92577265 84.93095398 38.89312744 C87.13410512 38.83574304 89.33519586 38.80910534 91.5390625 38.796875 C92.74397842 38.78832489 92.74397842 38.78832489 93.97323608 38.77960205 C95.6624827 38.77019967 97.35174727 38.76363713 99.04101562 38.75976562 C101.62401867 38.75000371 104.20624386 38.71891399 106.7890625 38.6875 C108.43489114 38.68097426 110.08072542 38.67572211 111.7265625 38.671875 C112.49642487 38.6595282 113.26628723 38.6471814 114.05947876 38.63446045 C117.32317244 38.64804341 119.60767855 38.77833877 122.47900391 40.40063477 C125.49062378 43.567428 124.88018385 47.83248171 125 52 C125.03996094 53.216875 125.07992188 54.43375 125.12109375 55.6875 C125.78336259 86.05403143 116.36191826 116.52833453 95.32348633 138.71582031 C83.68509158 150.62344428 70.21539093 156.41538347 54.0234375 159.359375 C51.06084034 159.88099742 51.06084034 159.88099742 48.6887207 161.00927734 C45.66632038 162.12295214 43.17052027 162.34450375 39.95703125 162.4921875 C38.22163086 162.59080078 38.22163086 162.59080078 36.45117188 162.69140625 C34.04525583 162.81279976 31.63899163 162.92749737 29.23242188 163.03515625 C22.13020969 163.45223907 15.13185253 164.05987642 9 168 C4.86040844 174.46781215 7 188.49511557 7 194 C51.22 194 95.44 194 141 194 C145.84573189 176.7364166 145.84573189 176.7364166 150.5625 159.4375 C153.26807513 150.33934049 157.35913392 144.52743504 165 139 C167.375 137.8125 167.375 137.8125 170 137 C171.093125 136.649375 172.18625 136.29875 173.3125 135.9375 C178.18464969 134.73106293 183.1463149 134.6903597 188.13598633 134.46679688 C191.85937173 134.26079079 195.06001322 133.89812931 198.5 132.4375 C202.55367806 130.77259651 205.70412802 129.83066033 210 131 C213.96155827 133.49872138 217.04480467 136.44780759 219.5 140.4375 C220.53389833 145.73622893 220.82028121 149.39098686 218.375 154.1875 C212.13388172 161.57829797 212.13388172 161.57829797 208.04931641 162.38549805 C205.88804236 162.45601311 203.78283547 162.38822434 201.625 162.25 C200.17989811 162.1876215 198.73456842 162.13030933 197.2890625 162.078125 C196.57911133 162.05177979 195.86916016 162.02543457 195.13769531 161.99829102 C191.70748555 162.0010333 188.39640879 162.5323785 185 163 C183.3342531 163.05915294 181.66659344 163.08854052 180 163.0625 C179.236875 163.05347656 178.47375 163.04445312 177.6875 163.03515625 C176.8521875 163.01775391 176.8521875 163.01775391 176 163 C175.87093262 163.7101123 175.74186523 164.42022461 175.60888672 165.15185547 C174.99174235 168.03862622 174.17456353 170.76493078 173.2578125 173.5703125 C172.74154297 175.16359375 172.74154297 175.16359375 172.21484375 176.7890625 C171.85519531 177.88992187 171.49554687 178.99078125 171.125 180.125 C168.79528528 187.25921798 166.55396301 194.38378021 164.64550781 201.64355469 C164.04491401 203.83604008 163.3653036 205.97625979 162.625 208.125 C159.31153239 217.85722684 156.50008878 227.75016267 154.125 237.75 C152.37633065 245.07180632 150.01407928 252.13851829 147.57788086 259.25683594 C145.36396057 265.76857767 143.48484632 272.29618313 141.82421875 278.96875 C141.06427406 281.76361766 140.07671342 284.31683015 139 287 C138.53449579 288.80551055 138.09865285 290.6188423 137.6875 292.4375 C136.26656063 298.29349255 134.3311705 303.8550188 132.24609375 309.50390625 C131.0815556 312.77118413 130.0846861 316.04287101 129.125 319.375 C125.24982055 332.01950983 120.83366789 342.81395668 111 352 C110.32839844 352.64324219 109.65679687 353.28648437 108.96484375 353.94921875 C94.53841962 367.1710508 79.72310595 371.16010412 60.5793457 371.12939453 C59.22161818 371.13075138 57.86389102 371.1325329 56.50616455 371.13470459 C52.82972438 371.13925085 49.15331238 371.13749941 45.47687173 371.1343255 C41.60650323 371.13178067 37.73613703 371.13414595 33.86576843 371.13571167 C27.35346041 371.13753001 20.84116372 371.13513879 14.32885742 371.13037109 C6.8508898 371.12495885 -0.62705043 371.12667023 -8.10501736 371.1321975 C-14.55977251 371.13677395 -21.01451952 371.13735637 -27.46927577 371.13475883 C-31.30843191 371.13321691 -35.14757531 371.13294332 -38.98673058 371.13629532 C-66.39532647 371.15684461 -66.39532647 371.15684461 -78.69067383 370.56201172 C-79.86585461 370.50550036 -79.86585461 370.50550036 -81.06477642 370.44784737 C-96.16479486 369.58465887 -107.81510468 361.74294017 -119 352 C-119.63679688 351.45859375 -120.27359375 350.9171875 -120.9296875 350.359375 C-127.95387037 343.92834535 -132.26300818 335.53053606 -135.36328125 326.625 C-135.79157227 325.39773193 -136.21986328 324.17046387 -136.66113281 322.90600586 C-137.10820325 321.604272 -137.55448494 320.302267 -138 319 C-138.21918091 318.36216583 -138.43836182 317.72433167 -138.66418457 317.06716919 C-140.32019758 312.240011 -141.94680006 307.40328434 -143.5625 302.5625 C-143.94293457 301.42420242 -143.94293457 301.42420242 -144.33105469 300.26290894 C-149.85812854 283.69220085 -155.03525684 267.01520424 -160.08312988 250.29281616 C-161.09534276 246.94231637 -162.12854713 243.60456011 -163.21069336 240.27563477 C-166.49024794 230.14088493 -168.57760981 219.54740813 -163.9375 209.4375 C-160.02617141 202.87442321 -155.17945023 197.79629676 -148 195 C-143.70567461 194.53860012 -139.42571441 194.56255883 -135.10986328 194.56762695 C-133.81176224 194.5574353 -132.51366119 194.54724365 -131.17622375 194.53674316 C-127.62914905 194.50922786 -124.08223466 194.49989617 -120.53506708 194.49388909 C-116.8234338 194.4844911 -113.1119196 194.45828659 -109.40036011 194.43388367 C-102.37759729 194.39025409 -95.35485762 194.36168543 -88.33200061 194.33856028 C-80.33436338 194.31148957 -72.33684614 194.26757925 -64.33929467 194.22227156 C-47.89292399 194.12947604 -31.4465318 194.05777206 -15 194 C-15.11090946 190.64521419 -15.24128778 187.29144824 -15.375 183.9375 C-15.42140625 182.52307617 -15.42140625 182.52307617 -15.46875 181.08007812 C-15.69201049 175.7404315 -16.14066303 171.03009955 -18 166 C-20.84045808 163.77218974 -23.57786786 163.73057858 -27.11328125 163.65625 C-28.10642334 163.62821289 -29.09956543 163.60017578 -30.12280273 163.57128906 C-31.17540283 163.54776367 -32.22800293 163.52423828 -33.3125 163.5 C-62.12771159 162.53098909 -88.27443565 156.27526006 -109 135 C-127.49017238 114.47088112 -134.17086489 86.93628803 -134.1875 59.9375 C-134.19974609 58.88755859 -134.21199219 57.83761719 -134.22460938 56.75585938 C-134.235156 51.16966474 -134.2268357 46.17721739 -132 41 C-124.43473451 34.71609038 -102.58670512 37.55892776 -93 38 C-88.91987781 38.40662599 -84.99646398 39.09428578 -81 40 C-80.00742187 40.20625 -79.01484375 40.4125 -77.9921875 40.625 C-70.85781817 42.23068926 -64.51572679 44.70276665 -58 48 C-56.84371094 48.57041016 -56.84371094 48.57041016 -55.6640625 49.15234375 C-49.49663723 52.36589692 -44.28925187 56.51387073 -39 61 C-37.70835937 62.05380859 -37.70835937 62.05380859 -36.390625 63.12890625 C-26.35912249 71.62528489 -20.13890803 82.58327591 -16 95 C-13.09391311 80.55396552 -13.09391311 80.55396552 -15.6953125 66.72265625 C-18.01884917 64.58596676 -18.01884917 64.58596676 -20.59765625 62.8359375 C-25.85500926 58.818123 -28.03784119 51.37911293 -29 45 C-30.01514802 29.0114187 -25.98826661 18.44081256 -15.9375 6.0625 C-11.08104115 0.73067348 -7.35678527 -2.23330981 0 0 Z M-92.9375 76.0625 C-94.60117864 79.09626693 -94.64924583 80.55899709 -94 84 C-89.08628006 90.82575322 -82.50149961 96.64882662 -76.5625 102.5625 C-75.65951172 103.46935547 -74.75652344 104.37621094 -73.82617188 105.31054688 C-69.98931356 109.14184855 -66.15991588 112.92738954 -62.03515625 116.44921875 C-57.20098464 120.59584745 -52.81579435 125.18505752 -48.36468506 129.73236084 C-34.22663292 145.97603061 -34.22663292 145.97603061 -16 155 C-13.22250804 150.30960501 -13.77091047 146.17207472 -15 141 C-17.58125956 136.78394272 -20.78275683 134.37660959 -24.65234375 131.35546875 C-32.90505555 124.631616 -40.22591087 116.95013325 -47.6875 109.375 C-49.88309838 107.1515602 -52.08025089 104.92971189 -54.2804718 102.71084595 C-55.63800405 101.34128586 -56.99286091 99.96906612 -58.34440613 98.59359741 C-62.16180934 94.7362773 -66.09542383 91.08176989 -70.20904541 87.54150391 C-71.87976653 86.10348691 -73.52199661 84.63892282 -75.16015625 83.1640625 C-76.11792969 82.32617188 -77.07570313 81.48828125 -78.0625 80.625 C-79.02285156 79.77164063 -79.98320312 78.91828125 -80.97265625 78.0390625 C-84.65090161 75.56158627 -88.76638492 73.77511431 -92.9375 76.0625 Z M37.09448242 111.94213867 C36.24474854 112.8004126 35.39501465 113.65868652 34.51953125 114.54296875 C33.76776611 115.30633545 33.01600098 116.06970215 32.24145508 116.85620117 C30 119 30 119 27.2175293 121.15356445 C26.48574463 121.76288818 25.75395996 122.37221191 25 123 C25 123.66 25 124.32 25 125 C24.4534375 125.21140625 23.906875 125.4228125 23.34375 125.640625 C20.16005308 127.48716921 17.92848691 130.03697648 15.5 132.75 C14.79037109 133.51957031 14.79037109 133.51957031 14.06640625 134.3046875 C8.47941195 140.20434947 8.47941195 140.20434947 5.609375 147.5546875 C5.65578125 148.32039063 5.7021875 149.08609375 5.75 149.875 C5.78609375 150.65617187 5.8221875 151.43734375 5.859375 152.2421875 C5.90578125 152.82226562 5.9521875 153.40234375 6 154 C8.58475686 154.98718982 9.67449906 155.13162847 12.28149414 154.07739258 C18.50580592 150.26462034 23.44119674 145.98559339 28.4375 140.6875 C33.00601487 135.97028936 37.48225462 131.40213511 42.6875 127.375 C48.03562041 123.20085724 52.45793722 118.35914282 57.02246094 113.36889648 C60.46526652 109.61392677 63.93725803 106.11242452 67.84692383 102.83862305 C69.86090211 101.11878288 71.81063585 99.35420855 73.74609375 97.546875 C74.42357666 96.91467041 75.10105957 96.28246582 75.79907227 95.63110352 C76.48412842 94.98971436 77.16918457 94.3483252 77.875 93.6875 C78.54265381 93.06351318 79.21030762 92.43952637 79.89819336 91.79663086 C84.72843836 87.87063395 84.72843836 87.87063395 87.4375 82.6875 C86.80267527 78.78786234 85.06623101 77.38484634 82 75 C68.12511985 73.10797089 46.21963886 102.69403483 37.09448242 111.94213867 Z M-57 218 C-57.79139059 221.95695297 -58.11797482 224.9949101 -58.09765625 228.95703125 C-58.09515869 229.95968018 -58.09266113 230.9623291 -58.09008789 231.99536133 C-58.08098389 233.25501709 -58.07187988 234.51467285 -58.0625 235.8125 C-58.041875 239.834375 -58.02125 243.85625 -58 248 C-44.14 248 -30.28 248 -16 248 C-16 238.43 -16 228.86 -16 219 C-36.295 218.505 -36.295 218.505 -57 218 Z M7 218 C7 227.9 7 237.8 7 248 C20.86 248 34.72 248 49 248 C49 238.43 49 228.86 49 219 C35.14 218.67 21.28 218.34 7 218 Z M73 218 C71.8950714 227.94435739 72 237.99444599 72 248 C89.16 248.33 106.32 248.66 124 249 C126.55212479 243.06672831 126.55212479 243.06672831 128.5703125 237.046875 C128.82683594 236.180625 129.08335937 235.314375 129.34765625 234.421875 C129.60417969 233.54015625 129.86070312 232.6584375 130.125 231.75 C130.64814142 229.9738711 131.17156655 228.19782573 131.6953125 226.421875 C132.0358667 225.25543457 132.0358667 225.25543457 132.38330078 224.06542969 C132.89038281 222.36712646 133.43952109 220.68143672 134 219 C103.805 218.505 103.805 218.505 73 218 Z M-143 219 C-141.08659067 231.96795997 -141.08659067 231.96795997 -136 248 C-117.85 248 -99.7 248 -81 248 C-81 238.43 -81 228.86 -81 219 C-101.46 219 -121.92 219 -143 219 Z M-128 270 C-127.34008593 274.61939847 -126.82089693 278.03337444 -125.37109375 282.27734375 C-125.08935303 283.11257568 -124.8076123 283.94780762 -124.51733398 284.80834961 C-124.16098877 285.84096924 -123.80464355 286.87358887 -123.4375 287.9375 C-122.303125 291.258125 -121.16875 294.57875 -120 298 C-106.8 298 -93.6 298 -80 298 C-80.33 289.09 -80.66 280.18 -81 271 C-104.265 270.505 -104.265 270.505 -128 270 Z M72 271 C71.91241997 272.99964982 71.89303424 275.0023611 71.90234375 277.00390625 C71.90484131 278.09775635 71.90733887 279.19160645 71.90991211 280.31860352 C71.91901611 281.71908936 71.92812012 283.1195752 71.9375 284.5625 C71.958125 288.996875 71.97875 293.43125 72 298 C84.87 298 97.74 298 111 298 C111.969375 294.65875 112.93875 291.3175 113.9375 287.875 C114.24163818 286.83327637 114.54577637 285.79155273 114.85913086 284.71826172 C115.10026611 283.88053223 115.34140137 283.04280273 115.58984375 282.1796875 C115.83597412 281.33132324 116.08210449 280.48295898 116.33569336 279.60888672 C117.06197184 276.75662217 117.55248796 273.90789978 118 271 C111.60978608 270.8321637 105.21941052 270.67220215 98.82885742 270.51782227 C96.65303032 270.46431699 94.47724745 270.40898135 92.30151367 270.35180664 C89.18157494 270.27013285 86.06153847 270.19495468 82.94140625 270.12109375 C81.96224747 270.09405869 80.98308868 270.06702362 79.97425842 270.03916931 C79.07340012 270.01907303 78.17254181 269.99897675 77.24438477 269.97827148 C76.44718521 269.95828598 75.64998566 269.93830048 74.82862854 269.91770935 C72.98026008 269.79487214 72.98026008 269.79487214 72 271 Z M-58 271 C-57.67 279.91 -57.34 288.82 -57 298 C-43.47 298 -29.94 298 -16 298 C-14.6691089 295.33821779 -14.88731007 293.31260604 -14.90234375 290.3359375 C-14.90484131 289.3257959 -14.90733887 288.3156543 -14.90991211 287.27490234 C-14.91901611 285.98793457 -14.92812012 284.7009668 -14.9375 283.375 C-14.958125 279.29125 -14.97875 275.2075 -15 271 C-29.19 271 -43.38 271 -58 271 Z M7 271 C7 279.91 7 288.82 7 298 C12.82076811 298.02290639 18.641381 298.04283426 24.4621582 298.05493164 C26.44393441 298.05997267 28.42570689 298.06680538 30.4074707 298.07543945 C33.24952109 298.08751515 36.09152247 298.09323045 38.93359375 298.09765625 C40.27108925 298.10539818 40.27108925 298.10539818 41.63560486 298.11329651 C43.75740601 298.11349177 45.8791078 298.0621003 48 298 C49.28426897 296.94049948 49.28426897 296.94049948 49.11352539 294.49975586 C49.10828857 293.41573486 49.10305176 292.33171387 49.09765625 291.21484375 C49.09515869 290.16159912 49.09266113 289.10835449 49.09008789 288.02319336 C49.08098389 286.67491455 49.07187988 285.32663574 49.0625 283.9375 C49.041875 279.668125 49.02125 275.39875 49 271 C35.14 271 21.28 271 7 271 Z M-111 321 C-107.25848269 332.22455192 -100.17498451 338.43117688 -89.91015625 344.16796875 C-86.2812281 345.85935102 -84.14668612 346 -80 346 C-80 337.75 -80 329.5 -80 321 C-90.23 321 -100.46 321 -111 321 Z M-58 321 C-57.67 329.25 -57.34 337.5 -57 346 C-43.14 346 -29.28 346 -15 346 C-15 337.75 -15 329.5 -15 321 C-29.19 321 -43.38 321 -58 321 Z M7 321 C7 329.25 7 337.5 7 346 C20.86 346 34.72 346 49 346 C49 337.75 49 329.5 49 321 C35.14 321 21.28 321 7 321 Z M72 321 C72 328.92 72 336.84 72 345 C85.9108333 341.90870371 94.24030011 336.86006818 101.96875 324.91796875 C103.15785496 323.06935234 103.15785496 323.06935234 103 321 C92.77 321 82.54 321 72 321 Z " fill="#50D48E" transform="translate(357,72)"/>
<path d="M0 0 C3.52302127 0.01603361 7.044885 0.00007971 10.56787109 -0.01904297 C37.25677861 -0.04556345 63.20831734 3.34428291 88.79052734 10.95361328 C89.52254364 11.16943054 90.25455994 11.3852478 91.00875854 11.60760498 C104.5207987 15.61392553 117.46740467 20.5264635 130.29052734 26.39111328 C131.1084375 26.76010742 131.92634766 27.12910156 132.76904297 27.50927734 C160.67335053 40.13374463 186.37400294 56.73515847 209.00146484 77.38720703 C210.9941994 79.13169991 212.99408303 80.69284245 215.16552734 82.20361328 C217.87859467 84.10276041 220.13250571 85.88780819 222.29052734 88.39111328 C222.29052734 89.05111328 222.29052734 89.71111328 222.29052734 90.39111328 C222.95052734 90.39111328 223.61052734 90.39111328 224.29052734 90.39111328 C225.70068359 91.78955078 225.70068359 91.78955078 227.35302734 93.76611328 C230.03989839 96.93595495 232.78451207 100.02522173 235.60302734 103.07861328 C240.3082858 108.30667823 244.61088041 113.80140891 248.82177734 119.42919922 C249.87304801 120.83345638 250.92817925 122.23482666 251.98583984 123.63427734 C264.83531778 140.64871052 264.83531778 140.64871052 269.95849609 150.04345703 C271.20833997 152.38592482 271.20833997 152.38592482 272.77880859 154.27001953 C274.41476824 156.56543578 275.41764701 158.92972752 276.48193359 161.52978516 C277.55616323 164.00258912 278.87529059 166.3277724 280.19506836 168.67626953 C315.41709368 231.85141101 321.9725878 305.45443724 308.29052734 375.39111328 C308.13890137 376.19468262 307.98727539 376.99825195 307.83105469 377.82617188 C303.33361092 401.30315463 293.85377015 424.06873828 283.29052734 445.39111328 C282.83000977 446.32455566 282.36949219 447.25799805 281.89501953 448.21972656 C276.11217712 459.84011942 269.79518141 470.80498044 262.29052734 481.39111328 C261.43471671 482.61743726 260.57925102 483.84400204 259.72412109 485.07080078 C254.82931104 492.04914316 249.74095985 498.83479592 244.29052734 505.39111328 C243.45521484 506.41205078 242.61990234 507.43298828 241.75927734 508.48486328 C230.59795693 521.94364057 218.34723 534.93550936 204.29052734 545.39111328 C202.66174381 546.69891504 201.03686708 548.01159441 199.41552734 549.32861328 C190.36241248 556.55410402 181.18689563 563.36417809 171.29052734 569.39111328 C170.56800781 569.83358398 169.84548828 570.27605469 169.10107422 570.73193359 C163.19705198 574.34153557 157.25550742 577.88331224 151.29052734 581.39111328 C150.65695312 581.76913086 150.02337891 582.14714844 149.37060547 582.53662109 C107.57693294 607.27600841 53.85131853 617.61040318 5.79052734 617.64111328 C4.83921936 617.64178802 3.88791138 617.64246277 2.90777588 617.64315796 C-21.83396405 617.61539207 -45.56579867 614.90954614 -69.70947266 609.39111328 C-70.52609375 609.2085498 -71.34271484 609.02598633 -72.18408203 608.83789062 C-95.71873567 603.47875902 -118.32846261 594.49132948 -139.70947266 583.39111328 C-140.43489258 583.01664063 -141.1603125 582.64216797 -141.90771484 582.25634766 C-165.38787255 569.98339375 -188.10314073 553.95897023 -207.28759766 535.69580078 C-209.39211332 533.69311652 -211.54440839 531.81585701 -213.77197266 529.95361328 C-218.73034769 525.6536117 -223.03125748 520.72527869 -227.3984375 515.84179688 C-228.54184066 514.57660105 -229.71144093 513.33517904 -230.88525391 512.09814453 C-283.70281366 455.89866947 -309.75903726 376.90330347 -307.86181641 300.70361328 C-306.29750174 250.75728058 -292.64943039 202.26284372 -267.66552734 159.06103516 C-266.45251667 156.94229332 -265.30023552 154.79283863 -264.14697266 152.64111328 C-258.68687629 142.83522593 -251.9620214 133.89142415 -245.0390625 125.08837891 C-243.67563254 123.34791525 -242.32630248 121.59721119 -240.97900391 119.84423828 C-234.44102796 111.3742991 -227.63294495 103.28583537 -220.03369141 95.73095703 C-217.69203057 93.4748025 -217.69203057 93.4748025 -215.89697266 91.01611328 C-213.51240316 88.15462988 -210.93368875 85.88283904 -208.10400391 83.47314453 C-205.82677232 81.49310467 -203.62229799 79.44850256 -201.42358398 77.38208008 C-195.51194453 71.85049485 -189.3626642 67.01978568 -182.70947266 62.39111328 C-181.40615241 61.45663809 -180.10415971 60.52030966 -178.80322266 59.58251953 C-165.04185099 49.69417561 -151.04432998 40.93612054 -136.02197266 33.07861328 C-134.90580566 32.49160645 -133.78963867 31.90459961 -132.63964844 31.29980469 C-125.16719945 27.4486279 -117.60095773 24.27609214 -109.70947266 21.39111328 C-108.47970703 20.91544922 -107.24994141 20.43978516 -105.98291016 19.94970703 C-102.89487432 18.75527808 -99.80256014 17.57239292 -96.70947266 16.39111328 C-95.80712891 16.04048828 -94.90478516 15.68986328 -93.97509766 15.32861328 C-82.29795383 10.90649964 -70.31054457 8.21521875 -58.08447266 5.82861328 C-57.07956787 5.63082275 -56.07466309 5.43303223 -55.03930664 5.22924805 C-51.60199902 4.576765 -48.15860166 3.97801157 -44.70947266 3.39111328 C-43.98348877 3.2615625 -43.25750488 3.13201172 -42.50952148 2.99853516 C-28.31517106 0.50463499 -14.39694954 -0.07758478 0 0 Z M-44.70947266 36.39111328 C-45.61955078 36.5512793 -46.52962891 36.71144531 -47.46728516 36.87646484 C-74.42683683 41.73042082 -100.64652333 51.3510307 -124.70947266 64.39111328 C-125.3883252 64.75591797 -126.06717773 65.12072266 -126.76660156 65.49658203 C-134.33106107 69.58302893 -141.61855446 73.81787754 -148.58056641 78.88330078 C-151.50929762 80.95759482 -154.55819101 82.67846021 -157.70947266 84.39111328 C-157.70947266 85.05111328 -157.70947266 85.71111328 -157.70947266 86.39111328 C-158.24572266 86.62830078 -158.78197266 86.86548828 -159.33447266 87.10986328 C-162.3624936 88.74340089 -165.00624754 90.78056957 -167.70947266 92.89111328 C-168.27110107 93.32746094 -168.83272949 93.76380859 -169.41137695 94.21337891 C-173.48369734 97.39521705 -177.52305263 100.61751127 -181.52197266 103.89111328 C-182.51841797 104.70580078 -183.51486328 105.52048828 -184.54150391 106.35986328 C-185.25693359 107.03017578 -185.97236328 107.70048828 -186.70947266 108.39111328 C-186.70947266 109.05111328 -186.70947266 109.71111328 -186.70947266 110.39111328 C-187.36947266 110.39111328 -188.02947266 110.39111328 -188.70947266 110.39111328 C-192.13504079 113.53121741 -195.11874573 116.97501039 -198.08447266 120.54736328 C-199.37665315 122.01349115 -200.7427511 123.41439226 -202.13134766 124.78955078 C-204.58316918 127.26366159 -206.77487613 129.80559536 -208.95947266 132.51611328 C-211.2909735 135.40439044 -213.62238066 138.28746049 -216.01025391 141.12939453 C-221.42331165 147.58953771 -226.17972754 154.2872359 -230.70947266 161.39111328 C-231.61052734 162.76203125 -231.61052734 162.76203125 -232.52978516 164.16064453 C-254.61340255 198.67207171 -267.03705867 236.05394713 -272.70947266 276.39111328 C-272.88905518 277.62901611 -273.0686377 278.86691895 -273.25366211 280.14233398 C-273.85383903 285.04633431 -273.90792574 289.93582838 -273.94775391 294.87158203 C-273.95750244 295.86984512 -273.96725098 296.86810822 -273.97729492 297.8966217 C-274.14651309 319.72819742 -274.02950948 340.91251958 -269.70947266 362.39111328 C-269.53287109 363.30989258 -269.35626953 364.22867187 -269.17431641 365.17529297 C-265.1060929 385.82529415 -258.48054777 406.72138048 -248.70947266 425.39111328 C-248.38591797 426.01373047 -248.06236328 426.63634766 -247.72900391 427.27783203 C-246.05011954 430.50051812 -244.34601059 433.70778347 -242.60791016 436.89892578 C-241.44943692 439.02994445 -240.30507005 441.16881061 -239.18603516 443.32080078 C-230.88460606 459.14396674 -219.40673401 474.61915964 -207.23291016 487.69189453 C-205.70947266 489.39111328 -205.70947266 489.39111328 -203.70947266 492.39111328 C-203.04947266 492.39111328 -202.38947266 492.39111328 -201.70947266 492.39111328 C-201.44537598 492.98045654 -201.1812793 493.5697998 -200.90917969 494.17700195 C-199.66370213 496.47558477 -198.36395052 497.98050845 -196.51416016 499.81689453 C-195.88445312 500.44539307 -195.25474609 501.0738916 -194.60595703 501.72143555 C-193.93886719 502.3755542 -193.27177734 503.02967285 -192.58447266 503.70361328 C-191.90449219 504.37642334 -191.22451172 505.0492334 -190.52392578 505.74243164 C-186.06019627 510.13407939 -181.52021034 514.38028748 -176.70947266 518.39111328 C-176.18998047 518.85001953 -175.67048828 519.30892578 -175.13525391 519.78173828 C-171.28128928 523.17845287 -167.26212077 526.36098126 -163.20947266 529.51611328 C-162.67555908 529.93610596 -162.14164551 530.35609863 -161.59155273 530.78881836 C-157.80093347 533.71343981 -153.89180275 536.06109721 -149.70947266 538.39111328 C-148.32244318 539.28947401 -146.94575587 540.20419771 -145.58447266 541.14111328 C-141.79488665 543.69129702 -137.96056312 546.16232018 -134.08447266 548.57861328 C-133.04033203 549.23216797 -131.99619141 549.88572266 -130.92041016 550.55908203 C-127.59589437 552.45591647 -124.2357829 553.90797732 -120.70947266 555.39111328 C-118.86536221 556.30137944 -117.04225947 557.24710088 -115.21728516 558.19506836 C-106.60572657 562.65972053 -97.836448 566.14106639 -88.70947266 569.39111328 C-87.34144073 569.90449371 -85.97425984 570.42014725 -84.60791016 570.93798828 C-59.75752016 580.28243222 -32.19493024 584.93627715 -5.70947266 585.39111328 C-4.61940918 585.41383301 -4.61940918 585.41383301 -3.50732422 585.43701172 C1.76168106 585.5330674 7.02191872 585.49237053 12.29052734 585.39111328 C13.11858887 585.37854492 13.94665039 585.36597656 14.79980469 585.35302734 C69.54466828 584.34400033 125.70032658 564.51825669 169.29052734 531.39111328 C170.45633636 530.52927484 171.62297963 529.66856356 172.79052734 528.80908203 C180.40082411 523.14951888 187.46571242 516.96470802 194.29052734 510.39111328 C195.15194336 509.56256836 195.15194336 509.56256836 196.03076172 508.71728516 C202.81269767 502.15530388 209.28620368 495.516482 215.14599609 488.10205078 C217.48667995 485.14315352 219.91460332 482.26985971 222.35302734 479.39111328 C226.93157787 473.89402638 231.21869362 468.27265089 235.29052734 462.39111328 C235.94021484 461.47330078 236.58990234 460.55548828 237.25927734 459.60986328 C274.92517521 403.95428285 291.09574194 330.87099316 278.60107422 264.70751953 C278.17890997 262.59873774 277.73673665 260.49493486 277.29052734 258.39111328 C277.11650391 257.54484375 276.94248047 256.69857422 276.76318359 255.82666016 C274.11129034 243.0335613 270.90815749 230.61946432 266.29052734 218.39111328 C265.95988281 217.51326172 265.62923828 216.63541016 265.28857422 215.73095703 C260.53254925 203.31868135 254.97322939 191.4232144 248.72802734 179.70361328 C247.82709351 178.00422607 247.82709351 178.00422607 246.90795898 176.27050781 C240.15888074 163.8508921 231.8856396 152.59293992 223.29052734 141.39111328 C222.85450195 140.82215332 222.41847656 140.25319336 221.96923828 139.66699219 C213.5237795 128.67949233 204.7516384 117.54735002 194.29052734 108.39111328 C193.63052734 108.39111328 192.97052734 108.39111328 192.29052734 108.39111328 C192.29052734 107.73111328 192.29052734 107.07111328 192.29052734 106.39111328 C191.63052734 106.39111328 190.97052734 106.39111328 190.29052734 106.39111328 C190.29052734 105.73111328 190.29052734 105.07111328 190.29052734 104.39111328 C188.74164233 102.97404827 187.12291201 101.63301832 185.47802734 100.32861328 C179.47563905 95.55243798 179.47563905 95.55243798 176.91943359 93.32470703 C139.00056918 60.51150252 88.35189602 41.63799196 39.29052734 34.39111328 C38.16324219 34.21322266 38.16324219 34.21322266 37.01318359 34.03173828 C10.11288005 29.88563645 -18.06092592 31.58050951 -44.70947266 36.39111328 Z " fill="#50D58E" transform="translate(348.70947265625,10.60888671875)"/>
<path d="M0 0 C0.77469635 0.05966949 1.5493927 0.11933899 2.3475647 0.18081665 C9.53186034 0.75225348 16.50654144 1.4305246 23.4375 3.5 C23.7675 4.82 24.0975 6.14 24.4375 7.5 C17.6567849 12.16174163 9.9396251 12.8297655 1.95703125 13.5 C1.04912842 13.58066711 0.14122559 13.66133423 -0.79418945 13.7444458 C-3.77875635 14.0055008 -6.76411958 14.25444332 -9.75 14.5 C-10.79290192 14.58648804 -11.83580383 14.67297607 -12.91030884 14.76208496 C-73.6601786 19.75145241 -134.67000148 19.42979577 -195.5625 17.5 C-196.5763678 17.46841797 -197.5902356 17.43683594 -198.63482666 17.40429688 C-223.44350844 16.62338827 -248.15102998 15.65927827 -272.81323242 12.74365234 C-275.63714135 12.45198939 -275.63714135 12.45198939 -278.78295898 12.50439453 C-282.70229054 12.49819796 -285.06189454 11.18029062 -288.5625 9.5 C-288.4375 7.6875 -288.4375 7.6875 -287.5625 5.5 C-283.16820108 2.83155866 -279.10713586 1.8798819 -274.0625 1.4375 C-272.83744751 1.32245117 -272.83744751 1.32245117 -271.58764648 1.20507812 C-184.51906553 -6.40713722 -94.87457446 -6.46961882 0 0 Z " fill="#4FD58E" transform="translate(479.5625,672.5)"/>
<path d="M0 0 C10.52506639 6.75721718 18.60080185 17.09520225 21.578125 29.38671875 C23.64102301 42.16522584 20.73148409 52.72162782 13.625 63.4375 C7.47328641 71.63094612 -1.25359794 78.5773076 -11.5078125 80.71875 C-25.62366048 82.31176106 -37.38672826 80.7038926 -49 72 C-49 71.34 -49 70.68 -49 70 C-49.99 69.67 -50.98 69.34 -52 69 C-61.35223573 57.62976445 -64.30105655 44.44012143 -63 30 C-61.28395135 19.63279697 -55.17882999 10.51190655 -47 4 C-33.33198242 -4.7620674 -14.8541981 -8.37322632 0 0 Z M-35 25 C-38.79190372 30.01509847 -39.60183545 34.78103363 -39 41 C-36.50375105 47.72226377 -33.57727264 52.71136368 -27 56 C-19.62741891 56.68243922 -13.86668511 56.76668165 -8 52 C-4.07863467 46.84030878 -2.38316041 41.52500634 -3 35 C-4.32190941 31.43764854 -6.01209525 28.23292467 -8 25 C-8.66 25 -9.32 25 -10 25 C-10.33 24.01 -10.66 23.02 -11 22 C-18.39635759 16.96165549 -28.78322421 19.28306548 -35 25 Z " fill="#50D48E" transform="translate(447,469)"/>
<path d="M0 0 C10.61020551 6.44069983 18.42741022 16.43690909 21.4453125 28.484375 C21.6721875 29.309375 21.8990625 30.134375 22.1328125 30.984375 C23.67171095 43.29556262 20.48086662 54.81865993 13.41796875 65.015625 C6.62164805 73.52111942 -1.31744431 78.0719606 -11.5546875 81.484375 C-25.63069837 82.56714507 -37.51113748 80.77692593 -48.62890625 71.28515625 C-49.26441406 70.69089844 -49.89992187 70.09664062 -50.5546875 69.484375 C-51.11800781 68.96230469 -51.68132812 68.44023438 -52.26171875 67.90234375 C-60.6012435 59.22501547 -62.90527507 47.42617952 -62.76171875 35.82421875 C-62.09207754 25.02151626 -56.8461025 15.32059757 -49.1171875 7.796875 C-34.48429808 -3.75245534 -17.50638301 -8.26832084 0 0 Z M-34.9921875 27.109375 C-38.43088141 32.33618974 -38.10843635 37.34699194 -37.5546875 43.484375 C-36.00193764 48.73334462 -33.3788774 52.75765897 -28.5546875 55.484375 C-22.53731791 57.60628954 -17.50161817 57.99877463 -11.53125 55.59375 C-7.11968145 53.11769176 -5.11834909 49.84228701 -3.1796875 45.171875 C-2.04522927 38.47857147 -2.65743347 32.20034758 -6.5546875 26.484375 C-11.44327034 22.20976109 -15.70141343 20.10497593 -22.36328125 20.203125 C-27.570299 20.87140535 -31.47191488 23.31831218 -34.9921875 27.109375 Z " fill="#50D48E" transform="translate(299.5546875,468.515625)"/>
<path d="M0 0 C4.31646551 2.28518762 7.0976625 4.45552709 9 9 C9.55438343 13.3558698 9.30805175 15.43700886 7.1875 19.3125 C4.74981562 22.30736938 3.16800522 23.80985961 -0.6875 24.4375 C-5.19238905 23.84251465 -8.55514233 21.94830161 -12 19 C-14.29899754 15.24546831 -14.59561587 12.39266706 -14 8 C-10.27696379 2.23271998 -7.07441228 -0.68023195 0 0 Z " fill="#54D591" transform="translate(543,407)"/>
<path d="M0 0 C3.41184222 1.92303834 5.42958014 3.34059677 6.73046875 7.125 C7.44204063 11.29579757 7.23785659 13.50599015 5.375 17.375 C2.94862246 20.0567857 1.36177364 21.6709267 -2 23 C-6.27081051 23 -8.39604114 22.43327484 -11.875 19.9375 C-14.52605661 16.27280409 -15.30870413 13.49826017 -15 9 C-12.32736336 1.54475042 -8.01828815 -1.5851894 0 0 Z " fill="#53D490" transform="translate(169,407)"/>
<path d="M0 0 C-1.66463038 4.28642324 -4.79075837 7.08617217 -8 10.25 C-8.5465625 10.80429688 -9.093125 11.35859375 -9.65625 11.9296875 C-13.7466133 16 -13.7466133 16 -16 16 C-14.33536962 11.71357676 -11.20924163 8.91382783 -8 5.75 C-7.4534375 5.19570312 -6.906875 4.64140625 -6.34375 4.0703125 C-2.2533867 0 -2.2533867 0 0 0 Z " fill="#66D99E" transform="translate(393,129)"/>
<path d="" fill="#80D0A2" transform="translate(0,0)"/>
</svg>
